<svg version="1.1" id="Layer_1" xmlns="http://www.w3.org/2000/svg" x="0" y="0" viewBox="0 0 4204 886" style="enable-background:new 0 0 4204 886" xml:space="preserve"><style>.st0{fill:#fff}</style><path class="st0" d="M679.7 201.5V277c0 50.3-.3 105.7-.9 166.4V684.6H547.9V493.2H182.5v191.3H51.6V201.6h130.9v191.3h366.3V201.5h130.9zM2140.4 201.5v382.6H2645.7v100.4h-637.1V584.1h.9V201.6l130.9-.1zM3125.9 201.5v482.9H2995V201.6l130.9-.1zM3982 202.2l170.4-1.3L3890.6 444l261.8 241.1h-176.6c-40.4-36.8-77.9-70.5-112.5-101-9.4-8.5-30.2-27.6-62.4-57.3l-170.4 159h-174.8l259.2-238.4-264.5-247.2 176.6 1.3 177.5 163.7 177.5-163zM1022.8 200.2h629.5v107.9h-629.5zM1022.8 577.9h629.5v107.9h-629.5zM1022.8 398h629.5v89.9h-629.5z"/></svg>